<?xml version="1.0" encoding="UTF-8"?>
<svg id="Capa_1" xmlns="http://www.w3.org/2000/svg" baseProfile="tiny" version="1.2" xmlns:xlink="http://www.w3.org/1999/xlink" viewBox="0 0 400.7 287">
  <!-- Generator: Adobe Illustrator 29.4.0, SVG Export Plug-In . SVG Version: 2.1.0 Build 152)  -->
  <image width="1024" height="1024" transform="translate(-1416.6 57.3)" xlink:href="../../../Downloads/ChatGPT Image 17 abr 2025, 06_56_58 p.m..png" isolation="isolate"/>
  <g>
    <path d="M260.3,91.2h44.6c.3,0,4,2.3,4.7,2.8,7.7,5.7,17.2,28.7,22.8,38.2,3.5,5.8,13.8,17.9,14.8,22.8,1.3,6.5,1.5,41.6.4,48.3-1.7,10-12,8.1-19.6,8-6.8-43.3-69.2-44.2-73.2,1l-93.8-1c-3.9-43.8-67.4-43.4-71.4,0-8.5-.6-18.4,1-26.7,0-8.5-1-13.9-10.8-8-17.4,2.6-2.9,7.5-2.2,8.5-5.6l.7-125c2.6-7.8,16.2-4.6,23.2-4.9,49.9-2,107.4-3,157.6-.4s14.3,1.1,15.5,3.7v29.6h0ZM210.6,184.1h13.1c2-21.6,0-43-7.5-63.4-1.6-4.3-3.9-8.4-5.6-12.6,4.3.8,8.3,2.1,12.2,4.2,3.6,1.9,5.9,5,8.5,6.5.9.5,4.4,1.8,5.1.5.5-13.6-9.3-23.3-23-19.7,2-3.1,5.9-5.5,9.1-7.3,3.9-2.3,12.2-3.3,10.5-8.9-2.8-9.2-28.6,5.5-29.5,13.4-5.9-9.5-14.8-25-28.2-17.9-2.4,3.6,7.6,8.7,9.9,10.8,1.1,1,9.5,8.9,8.4,9.9-13.4-3.2-27.6.2-29.9,15.4,1.1,4.5,12.6-3.3,15.2-4.3s6.7-2.2,7.2-1.7c-1.8,4.7-5,8.3-5.6,13.6-.6,5.3.9,10.3.9,15.5l5.2-.9c-.5-3.4,13.6-27.7,15.5-26.3,13.2,22.8,11.6,48,8.5,73.2h0ZM319.5,140.9l-16.5-34.4c-.2-.5-.7-.8-1.3-.8h-30.1v35.2h47.9Z" fill="#0f454d"/>
    <path d="M316.8,214.9c0,14.3-11.6,25.9-25.9,25.9s-25.9-11.6-25.9-25.9,11.6-25.9,25.9-25.9,25.9,11.6,25.9,25.9ZM301,214.6c0-5.3-4.3-9.6-9.6-9.6s-9.6,4.3-9.6,9.6,4.3,9.6,9.6,9.6,9.6-4.3,9.6-9.6Z" fill="#0f454d"/>
    <path d="M150.3,214.8c0,14.1-11.4,25.5-25.5,25.5s-25.5-11.4-25.5-25.5,11.4-25.5,25.5-25.5,25.5,11.4,25.5,25.5ZM124,204.9c-14.1,1.1-8.9,25.7,5.3,18.4,9.4-4.8,4.9-19.3-5.3-18.4Z" fill="#0f454d"/>
  </g>
</svg>